<svg xmlns="http://www.w3.org/2000/svg" fill="none" viewBox="0 0 278 371"><path stroke="#fff" stroke-linejoin="round" stroke-width="13" d="M173.375 215.029 154 234.465l-.062-64.012c0-8.338-6.688-15.047-15-15.047-8.313 0-15 6.709-15 15.047v64.012l-19.375-19.436c-5.813-5.893-15.313-5.83-21.188 0-5.875 5.831-5.875 15.361 0 21.254l45 45.141c5.813 5.893 15.313 5.893 21.188 0l45-45.141c5.875-5.83 5.812-15.36 0-21.254-5.813-5.893-15.313-5.893-21.188 0Z"/><path stroke="#fff" stroke-width="13" d="M265.5 145.312v-6.5H179c-12.302 0-20.35-2.975-25.368-7.935-5.005-4.946-8.132-12.988-8.132-25.627V18.5H59c-25.672 0-46.5 20.923-46.5 46.625v240.75c0 25.702 20.828 46.625 46.5 46.625h160c25.671 0 46.5-20.923 46.5-46.625V145.312Z"/><path fill="#fff" stroke="#fff" stroke-linejoin="round" stroke-width="9" d="M182.187 21.823A4.5 4.5 0 0 0 174.5 25v80.25a4.5 4.5 0 0 0 4.5 4.5h80a4.5 4.5 0 0 0 3.187-7.677l-80-80.25Z"/></svg>